<svg width="20" height="20" viewBox="0 0 20 20" fill="none" xmlns="http://www.w3.org/2000/svg">
<path d="M1 4C1 2.9 1.9 2 3 2H17C17.5304 2 18.0391 2.21071 18.4142 2.58579C18.7893 2.96086 19 3.46957 19 4V18C19 18.5304 18.7893 19.0391 18.4142 19.4142C18.0391 19.7893 17.5304 20 17 20H3C2.46957 20 1.96086 19.7893 1.58579 19.4142C1.21071 19.0391 1 18.5304 1 18V4ZM3 6V18H17V6H3ZM5 0H7V2H5V0ZM13 0H15V2H13V0ZM5 9H7V11H5V9ZM5 13H7V15H5V13ZM9 9H11V11H9V9ZM9 13H11V15H9V13ZM13 9H15V11H13V9ZM13 13H15V15H13V13Z" fill="#0499DD"/>
</svg>
