<svg width="30" height="30" viewBox="0 0 30 30" fill="none" xmlns="http://www.w3.org/2000/svg">
<path d="M21.3715 11.7237C21.3836 11.6058 21.2911 11.5033 21.1725 11.5033H17.3486V8.85009C17.3486 7.85367 18.009 7.62137 18.4742 7.62137C18.8565 7.62137 20.5467 7.62137 21.1301 7.62137C21.2406 7.62137 21.329 7.53182 21.329 7.42137V3.44015C21.329 3.33 21.2399 3.24058 21.1298 3.24015L17.3973 3.22559C13.0327 3.22559 12.0395 6.49266 12.0395 8.58339V11.5033H9.71538C9.60492 11.5033 9.51538 11.5929 9.51538 11.7033V15.8171C9.51538 15.9276 9.60492 16.0171 9.71538 16.0171H12.0395C12.0395 21.2361 12.0395 27.4186 12.0395 28.5921C12.0395 28.7026 12.129 28.7896 12.2395 28.7896H17.1486C17.2591 28.7896 17.3486 28.7024 17.3486 28.592C17.3486 27.4122 17.3486 21.1766 17.3486 16.0171H20.7505C20.8531 16.0171 20.939 15.9395 20.9495 15.8375L21.3715 11.7237Z" stroke="#17C1BC" stroke-width="2"/>
</svg>
