<svg width="51" height="51" viewBox="0 0 51 51" fill="none" xmlns="http://www.w3.org/2000/svg">
<path d="M43.0312 36.6562H30.2812V39.8438H43.0312V36.6562Z" fill="#282828"/>
<path d="M43.0312 30.2812H30.2812V33.4688H43.0312V30.2812Z" fill="#282828"/>
<path d="M43.0312 23.9062H30.2812V27.0938H43.0312V23.9062Z" fill="#282828"/>
<path d="M47.8125 11.1562H28.6875V14.3438H46.2188V43.0312H4.78125V14.3438H22.3125V11.1562H3.1875C2.30722 11.1562 1.59375 11.8702 1.59375 12.75V44.625C1.59375 45.5047 2.30722 46.2188 3.1875 46.2188H47.8125C48.6928 46.2188 49.4062 45.5047 49.4062 44.625V12.75C49.4062 11.8702 48.6928 11.1562 47.8125 11.1562Z" fill="#282828"/>
<path d="M20.7188 15.4062V4.78125H30.2812V15.4062C30.2812 16.2865 29.5678 17 28.6875 17H22.3125C21.4322 17 20.7188 16.2865 20.7188 15.4062ZM23.9062 13.8125H27.0938V7.96875H23.9062V13.8125Z" fill="#282828"/>
<path d="M27.0938 32.4062C27.0938 29.8132 25.5351 27.5809 23.3075 26.5859C23.6879 25.7699 23.9062 24.8641 23.9062 23.9062C23.9062 20.391 21.0465 17.5312 17.5312 17.5312C14.016 17.5312 11.1562 20.391 11.1562 23.9062C11.1562 24.8641 11.3746 25.7699 11.755 26.5859C9.52744 27.5809 7.96875 29.8132 7.96875 32.4062V39.8438H27.0938V32.4062ZM17.5312 20.7188C19.2892 20.7188 20.7188 22.1483 20.7188 23.9062C20.7188 25.6642 19.2892 27.0938 17.5312 27.0938C15.7733 27.0938 14.3438 25.6642 14.3438 23.9062C14.3438 22.1483 15.7733 20.7188 17.5312 20.7188ZM23.9062 36.6562H11.1562V32.4062C11.1562 30.7514 12.4243 29.3866 14.0404 29.2342C15.0439 29.894 16.2424 30.2812 17.5312 30.2812C18.8201 30.2812 20.0186 29.894 21.0216 29.2342C22.6382 29.3866 23.9062 30.7514 23.9062 32.4062V36.6562Z" fill="#282828"/>
</svg>
