<svg width="38" height="38" viewBox="0 0 38 38" fill="none" xmlns="http://www.w3.org/2000/svg">
<path d="M34.3068 26.125C32.9014 23.9127 31.2567 21.8618 29.4024 20.0094C29.3687 19.9673 29.3503 19.9149 29.3503 19.861C29.3503 19.807 29.3687 19.7547 29.4024 19.7125C30.9981 17.5346 32.4082 15.2268 33.618 12.8132C33.7931 12.4678 33.8762 12.0832 33.8596 11.6964C33.843 11.3095 33.7271 10.9335 33.523 10.6044C33.337 10.2699 33.0649 9.99124 32.7351 9.79709C32.4052 9.60294 32.0295 9.50039 31.6468 9.50003H28.0843C27.6322 9.50881 27.192 9.64644 26.8155 9.89677C26.439 10.1471 26.1417 10.4997 25.9587 10.9132C24.9239 13.2017 23.6838 15.3917 22.2537 17.4563V11.6375C22.2552 11.3564 22.201 11.0777 22.0942 10.8177C21.9873 10.5576 21.8299 10.3214 21.6311 10.1226C21.4323 9.92378 21.1961 9.76639 20.936 9.65953C20.676 9.55267 20.3973 9.49846 20.1162 9.50003H14.9149C14.6121 9.50474 14.3164 9.59206 14.0596 9.75257C13.8028 9.91308 13.5947 10.1407 13.4578 10.4108C13.3209 10.6809 13.2604 10.9833 13.2828 11.2853C13.3052 11.5873 13.4097 11.8774 13.5849 12.1244L14.0599 12.7894C14.3147 13.1553 14.4514 13.5904 14.4518 14.0363V18.5963C12.8842 16.2773 11.6379 13.7567 10.7468 11.1032C10.5861 10.6356 10.2835 10.2298 9.88116 9.94242C9.47883 9.65504 8.99685 9.50039 8.50242 9.50003H5.59305C5.28392 9.50373 4.97961 9.57714 4.70281 9.71481C4.426 9.85247 4.18383 10.0508 3.99435 10.2951C3.80487 10.5394 3.67296 10.8233 3.60845 11.1256C3.54395 11.4279 3.54851 11.7409 3.6218 12.0413C5.22492 18.8457 8.58555 24.4863 12.8487 27.4788C13.1042 27.6603 13.4211 27.7334 13.7302 27.6823C14.0394 27.6311 14.3159 27.4598 14.4993 27.2057C14.591 27.0787 14.6567 26.9349 14.6927 26.7825C14.7286 26.6301 14.734 26.4721 14.7086 26.3176C14.6832 26.1631 14.6275 26.0151 14.5447 25.8822C14.4619 25.7493 14.3537 25.6341 14.2262 25.5432C10.4974 22.9307 7.52867 17.955 6.02055 11.875H8.5143C9.60707 15.1952 11.2532 18.3067 13.383 21.0782C13.6292 21.3927 13.9682 21.6216 14.352 21.7325C14.7357 21.8434 15.1446 21.8305 15.5205 21.6957C15.9063 21.5612 16.24 21.3088 16.4744 20.9742C16.7089 20.6396 16.8321 20.2398 16.8268 19.8313V14.0363C16.8293 13.2814 16.6415 12.5381 16.2805 11.875H19.843V18.3232C19.8388 18.7845 19.9865 19.2345 20.2633 19.6036C20.5402 19.9728 20.9308 20.2405 21.3749 20.3657C21.8058 20.5091 22.272 20.5065 22.7013 20.3584C23.1306 20.2103 23.4991 19.9249 23.7499 19.5463C25.4366 17.1399 26.8768 14.5699 28.0487 11.875H31.3737C30.2418 14.1005 28.9354 16.2328 27.4668 18.2519C27.0965 18.7473 26.9167 19.3594 26.9603 19.9764C27.0039 20.5934 27.268 21.1741 27.7043 21.6125C29.4363 23.3579 30.9952 25.2668 32.3593 27.3125H28.3812C27.1539 25.2811 25.5059 23.5359 23.548 22.1944C23.2543 21.9792 22.9061 21.8506 22.5429 21.8233C22.1798 21.796 21.8163 21.8711 21.4937 22.04C21.1619 22.2098 20.884 22.4686 20.6911 22.7874C20.4981 23.1062 20.3977 23.4724 20.4012 23.845V26.6713C20.4077 26.8363 20.3491 26.9972 20.238 27.1194C20.1269 27.2416 19.9723 27.3152 19.8074 27.3244H18.7862C18.4712 27.3244 18.1692 27.4495 17.9465 27.6722C17.7238 27.8949 17.5987 28.197 17.5987 28.5119C17.5987 28.8269 17.7238 29.1289 17.9465 29.3516C18.1692 29.5743 18.4712 29.6994 18.7862 29.6994H19.8074C20.2014 29.6963 20.5909 29.6154 20.9536 29.4614C21.3162 29.3074 21.6449 29.0833 21.9207 28.802C22.1966 28.5206 22.4141 28.1876 22.5609 27.8219C22.7077 27.4563 22.7809 27.0653 22.7762 26.6713V24.5694C24.2046 25.6439 25.414 26.9822 26.3387 28.5119C26.5428 28.8657 26.8348 29.1609 27.1863 29.3689C27.5379 29.5769 27.9371 29.6908 28.3455 29.6994H32.3593C32.7697 29.7004 33.1728 29.5906 33.526 29.3816C33.8793 29.1726 34.1695 28.8722 34.3662 28.5119C34.5679 28.1442 34.6687 27.7297 34.6582 27.3105C34.6478 26.8912 34.5265 26.4822 34.3068 26.125Z" fill="#BC0000"/>
</svg>
